<svg width="122" height="36" viewBox="0 0 122 36" fill="none" xmlns="http://www.w3.org/2000/svg">
<path d="M61.4443 28.3772C61.6027 28.2866 61.7833 28.2411 61.9856 28.2411C62.2026 28.2411 62.3979 28.2926 62.5709 28.3951C62.7439 28.4976 62.8801 28.6425 62.9799 28.8285C63.0797 29.0146 63.1296 29.231 63.1296 29.4773C63.1296 29.7235 63.0797 29.9378 62.9799 30.1282C62.8801 30.3191 62.7429 30.4672 62.5687 30.5725C62.3941 30.6782 62.1999 30.7308 61.9856 30.7308C61.7714 30.7308 61.5945 30.6853 61.4378 30.5947C61.281 30.5036 61.1627 30.388 61.0835 30.247V30.6913H60.6832V27.4355H61.0835V28.7293C61.1655 28.5855 61.2859 28.4683 61.4443 28.3772ZM62.61 29.0021C62.5367 28.867 62.4375 28.7645 62.3133 28.694C62.1885 28.6235 62.0513 28.5882 61.9021 28.5882C61.7529 28.5882 61.62 28.624 61.4953 28.6962C61.3705 28.7683 61.2707 28.8719 61.1958 29.0086C61.121 29.1448 61.0835 29.3026 61.0835 29.4816C61.0835 29.6606 61.121 29.8228 61.1958 29.959C61.2707 30.0951 61.3705 30.1993 61.4953 30.2714C61.62 30.3435 61.7556 30.3794 61.9021 30.3794C62.0485 30.3794 62.189 30.3435 62.3133 30.2714C62.438 30.1998 62.5367 30.0957 62.61 29.959C62.6832 29.8228 62.7201 29.6622 62.7201 29.4773C62.7201 29.2923 62.6832 29.1372 62.61 29.0021Z" fill="#262424"/>
<path d="M65.7333 28.2777L64.2812 31.8236H63.8678L64.343 30.6623L63.371 28.2777H63.8152L64.5719 30.231L65.3199 28.2777H65.7333Z" fill="#262424"/>
<path d="M116.02 24.0231H114.178L112.726 24.9024V34.4037L114.178 35.283H116.02C119.125 35.283 121.65 32.7574 121.65 29.6536C121.65 26.5497 119.125 24.0231 116.02 24.0231ZM116.02 34.5257H113.483V24.7803H116.02C118.706 24.7803 120.893 26.9669 120.893 29.6536C120.893 32.3403 118.706 34.5257 116.02 34.5257Z" fill="#262424"/>
<path d="M111.636 25.5621V33.7442L110.879 33.2859V26.0205L111.636 25.5621Z" fill="#262424"/>
<path d="M72.9863 27.4343H70.6451V31.8742H72.9863C74.4932 31.8742 75.2401 30.7296 75.2401 29.654C75.2401 28.4894 74.3961 27.4338 72.9863 27.4338V27.4343ZM72.9038 31.0963H71.5358V28.2127H72.893C73.8911 28.2127 74.3484 28.8604 74.3484 29.6437C74.3484 30.4269 73.9149 31.0958 72.9033 31.0958L72.9038 31.0963ZM76.3125 27.4343V31.8742H77.214V27.4343H76.3125ZM83.7114 27.2987C82.9807 27.2987 82.4307 27.5954 82.0618 28.1899C81.7542 27.5954 81.2319 27.2987 80.4947 27.2987C79.2986 27.2987 78.5587 28.0836 78.5587 29.3269V31.8747H79.4603V29.3269C79.4603 28.5951 79.8633 28.1178 80.5148 28.1178C81.1239 28.1178 81.6002 28.5566 81.6002 29.3269V31.8747H82.5017V29.3269C82.5017 28.6282 82.9698 28.1178 83.6387 28.1178C84.3704 28.1178 84.6427 28.7036 84.6427 29.3269V31.8747H85.5442V29.3269C85.5442 27.9344 84.7176 27.2987 83.7108 27.2987H83.7114ZM91.2333 29.6236C91.2333 28.3895 90.4728 27.309 88.929 27.309C87.4748 27.309 86.512 28.2995 86.512 29.6648C86.512 30.9493 87.4048 31.9995 89.0625 31.9995C89.8474 31.9995 90.5406 31.7402 91.1422 31.2211L90.6404 30.6678C90.2097 31.0578 89.6874 31.252 89.0728 31.252C88.0639 31.252 87.5339 30.6705 87.4238 29.9615H91.2241C91.2306 29.8861 91.2339 29.7733 91.2339 29.623L91.2333 29.6236ZM87.4336 29.214C87.599 28.4834 88.1691 28.0359 88.9182 28.0359C89.8143 28.0359 90.2049 28.6515 90.3117 29.214H87.4336ZM94.3171 27.2987C93.0982 27.2987 92.2585 28.1449 92.2585 29.4495V31.8747H93.1595V29.4495C93.1595 28.6298 93.6293 28.1178 94.3171 28.1178C94.9528 28.1178 95.4746 28.5496 95.4746 29.4495V31.8747H96.3762V29.4495C96.3762 27.878 95.2821 27.2987 94.3171 27.2987ZM99.4301 29.2683C98.4385 29.0698 98.2807 28.83 98.2807 28.5951C98.2807 28.2567 98.5741 28.088 99.1616 28.088C99.8239 28.088 100.319 28.2859 100.647 28.6825L101.149 28.1395C100.762 27.6415 100.058 27.3096 99.1925 27.3096C98.1326 27.3096 97.3997 27.814 97.3997 28.651C97.3997 29.488 98.0772 29.7305 99.3053 30.0125C100.073 30.1888 100.339 30.3396 100.339 30.6689C100.339 30.9981 100.008 31.2222 99.3666 31.2222C98.7255 31.2222 98.1814 31.0209 97.799 30.6179L97.256 31.0996C97.6129 31.61 98.3517 32.0005 99.346 32.0005C100.493 32.0005 101.22 31.4413 101.22 30.6076C101.22 29.9908 100.86 29.5558 99.4295 29.2688L99.4301 29.2683ZM105.844 27.4349V28.006C105.462 27.5417 104.943 27.3096 104.287 27.3096C103.075 27.3096 102.013 28.1872 102.013 29.6551C102.013 31.2086 103.15 32.0005 104.287 32.0005C104.943 32.0005 105.461 31.7684 105.844 31.3041V31.8752H106.725V27.4354H105.844V27.4349ZM104.42 31.1907C103.542 31.1907 102.935 30.5457 102.935 29.6545C102.935 28.6835 103.607 28.108 104.42 28.108C105.234 28.108 105.885 28.6694 105.885 29.6442C105.885 30.619 105.194 31.1907 104.42 31.1907Z" fill="#262424"/>
<path d="M116.02 25.7717H114.573V26.529H116.02C117.744 26.529 119.146 27.9312 119.146 29.655C119.146 31.3789 117.744 32.7811 116.02 32.7811H114.573V33.5383H116.02C118.161 33.5383 119.903 31.7966 119.903 29.655C119.903 27.5135 118.161 25.7717 116.02 25.7717Z" fill="#262424"/>
<path fill-rule="evenodd" clip-rule="evenodd" d="M101.137 3.78241C101.21 3.78241 101.25 3.75692 101.25 3.70972V0.0726865C101.25 0.0314613 101.21 0.00650924 101.137 0H78.97V0.0688894H78.944C78.8963 0.0688894 78.8713 0.094384 78.8713 0.141576V9.53712C74.3517 4.27928 72.073 1.64413 72.0383 1.63111H71.9721L65.1678 9.53712V3.92182L60.0835 9.93798V15.9091C60.0835 15.9503 60.103 15.9818 60.1464 15.9818H65.2404C65.2659 15.9818 67.5187 13.3591 72.0008 8.11377L78.8046 15.9818H83.8927C83.9333 15.9818 83.9583 15.9563 83.9648 15.9091V3.78241H101.136H101.137Z" fill="#262424"/>
<path fill-rule="evenodd" clip-rule="evenodd" d="M85.186 6.25V9.70641H101.167C101.22 9.70641 101.249 9.68742 101.249 9.64348V6.31346C101.249 6.27549 101.22 6.25651 101.167 6.25054H85.186V6.25Z" fill="#262424"/>
<path fill-rule="evenodd" clip-rule="evenodd" d="M122 4.82063V4.32051C122 3.67772 121.81 3.00998 121.434 2.31675C120.316 0.771887 118.863 0 117.075 0H102.653C102.612 0 102.587 0.0254945 102.581 0.0726865V10.8352H107.653V3.77644H108.952V3.78241H116.223C116.347 3.78241 116.451 3.79489 116.536 3.82038C117.23 4.02325 117.575 4.41869 117.575 4.99801C117.575 5.02947 117.552 5.15966 117.502 5.38694C117.23 5.96355 116.888 6.25104 116.473 6.25104H108.953V9.70745H116.574C117.242 9.951 117.575 10.3529 117.575 10.9225C117.575 11.0397 117.54 11.2203 117.464 11.4611C117.261 11.9358 116.808 12.1761 116.109 12.1761H107.689L105.117 12.1782C105.113 12.1782 105.112 12.1761 105.108 12.1761H85.1853V15.9585H117.464C118.1 15.9585 118.866 15.7339 119.755 15.2815C121.25 14.2878 122 13.1096 122 11.7492V11.0337C122 9.7861 121.38 8.75113 120.145 7.92825C121.379 7.0392 122 6.00043 122 4.82009V4.82063Z" fill="#262424"/>
<path d="M25.7315 9.75455V12.2216H34.1517C34.8504 12.2216 35.3011 11.9834 35.5056 11.5072C35.5794 11.2658 35.6168 11.0873 35.6168 10.9696C35.6168 10.4006 35.2832 9.99594 34.6155 9.75455H25.7315ZM25.7315 3.82952V6.29598H34.513C34.9268 6.29598 35.2702 6.00848 35.5425 5.4335C35.5919 5.20514 35.6163 5.07495 35.6163 5.04403C35.6163 4.46308 35.2702 4.07036 34.5775 3.8664C34.4913 3.84199 34.386 3.82952 34.2624 3.82952H25.7315ZM20.696 0.0460205H35.1161C36.9024 0.0460205 38.355 0.818993 39.4746 2.36385C39.8516 3.05654 40.0404 3.72428 40.0404 4.36707V4.86774C40.0404 6.04862 39.422 7.08414 38.1858 7.97427C39.422 8.79661 40.0404 9.83212 40.0404 11.0808V11.7952C40.0404 13.1545 39.2924 14.3327 37.7963 15.3281C36.9056 15.7794 36.1424 16.0056 35.5056 16.0056H20.696C20.6467 16.0056 20.6217 15.9812 20.6217 15.9313V0.119792C20.6277 0.0704302 20.6526 0.0460205 20.696 0.0460205Z" fill="#262424"/>
<path fill-rule="evenodd" clip-rule="evenodd" d="M41.3567 0.0689697H46.4442L53.2491 7.93701C57.7307 2.69165 59.9839 0.0689697 60.0094 0.0689697H65.1029C65.1474 0.075479 65.1658 0.100431 65.1658 0.141656V4.19474L60.0816 10.2559V6.51366L53.2767 14.4197H53.2105C53.1758 14.4072 50.897 11.772 46.378 6.51366V15.9092C46.378 15.9569 46.3525 15.9819 46.3053 15.9819H41.3561C41.3089 15.9819 41.2834 15.9564 41.2834 15.9092V0.141656C41.29 0.0944642 41.3154 0.0689697 41.3561 0.0689697H41.3567Z" fill="#262424"/>
<path fill-rule="evenodd" clip-rule="evenodd" d="M0.0726865 0H14.5698C16.1619 0 17.5066 0.629769 18.6023 1.89256C19.1941 2.66499 19.4914 3.47539 19.4914 4.32051V7.25183C19.4914 8.74245 18.662 9.98951 16.9972 10.999C16.6935 11.1162 16.5291 11.1731 16.4971 11.1731C16.7445 11.5881 17.7415 13.1579 19.4914 15.8863V15.959H13.1036C12.9675 15.8543 12.29 14.5346 11.0717 11.9992L10.7836 11.5626H5.10867V15.8863C5.10867 15.9341 5.08317 15.959 5.03544 15.959H0.0726865C0.0249521 15.959 0 15.9335 0 15.8863V7.77149C4.12143 7.77149 8.22605 7.78017 12.3507 7.78017C13.389 7.78017 14.0475 7.32778 14.3165 6.42516C14.3675 6.20981 14.393 6.00748 14.393 5.8236C14.393 4.8521 13.9943 4.19195 13.1769 3.89307C12.9295 3.80248 12.674 3.78241 12.4272 3.78241L0 3.7835V0.0726865C0 0.0244096 0.0314613 0 0.0726865 0Z" fill="#262424"/>
</svg>
